Coordinates
version=1
nRows=14
nColumns=40
inDegrees=yes

Units are S.I. units (second, meters, Newtons, ...)
Angles are in degrees.

endheader
time	pelvis_tilt	pelvis_list	pelvis_rotation	pelvis_tx	pelvis_ty	pelvis_tz	hip_flexion_r	hip_adduction_r	hip_rotation_r	knee_angle_r	knee_angle_r_beta	ankle_angle_r	subtalar_angle_r	mtp_angle_r	hip_flexion_l	hip_adduction_l	hip_rotation_l	knee_angle_l	knee_angle_l_beta	ankle_angle_l	subtalar_angle_l	mtp_angle_l	lumbar_extension	lumbar_bending	lumbar_rotation	arm_flex_r	arm_add_r	arm_rot_r	elbow_flex_r	pro_sup_r	wrist_flex_r	wrist_dev_r	arm_flex_l	arm_add_l	arm_rot_l	elbow_flex_l	pro_sup_l	wrist_flex_l	wrist_dev_l
     26.65742857	     -8.91913258	     -4.35729535	      1.88037997	      0.80466825	      0.92317727	      0.51610987	     17.82181517	      3.50999058	    -12.69634714	     19.59631113	     19.59631113	     12.34158915	     -3.52467608	     -0.13309259	     39.53968439	     -7.60506089	      4.70176941	     30.52214403	     30.52214403	     10.07030431	    -16.27388909	     13.31318745	    -12.88387172	      3.62783086	      1.27680007	     17.66974504	    -19.68005353	     -5.36272172	     73.96963511	     45.00711767	      0.00000000	      0.00000000	      2.03898211	     -8.07632981	    -12.16325420	     28.22792298	     47.09484830	      0.00000000	      0.00000000
     26.66985714	     -8.91282599	     -4.18871658	      2.16108454	      0.80362717	      0.92365952	      0.51571996	     17.19866239	      3.29034677	    -12.99323549	     19.16635300	     19.16635300	     12.56040395	     -3.07925503	     -0.14489119	     39.46951190	     -7.20316347	      4.33157612	     27.52502051	     27.52502051	      9.74231999	    -14.63757262	     12.47819246	    -13.02470306	      3.40751842	      0.92661870	     19.20369827	    -19.35473382	     -5.41506435	     76.02300206	     44.95586575	      0.00000000	      0.00000000	      1.59297475	     -8.10047916	    -12.39366049	     28.40176772	     47.10596213	      0.00000000	      0.00000000
     26.68228571	     -9.03898685	     -4.24194127	      2.40808016	      0.80254126	      0.92363105	      0.51535416	     16.81496014	      3.29119900	    -13.31422781	     18.89916780	     18.89916780	     12.78904841	     -2.73053317	     -0.17561007	     39.67036309	     -7.04019262	      3.98033430	     24.95816964	     24.95816964	      9.16554369	    -13.23256536	     11.02493175	    -12.98079763	      3.46761050	      1.10196180	     20.37879196	    -19.60443087	     -5.30953995	     77.94280695	     44.91426594	      0.00000000	      0.00000000	      1.27990344	     -7.99624956	    -12.87484858	     29.28736376	     47.13521990	      0.00000000	      0.00000000
     26.69471429	     -9.12548622	     -4.25797486	      2.60456701	      0.80153302	      0.92370681	      0.51494199	     16.37655379	      3.30024674	    -13.43680741	     18.60791765	     18.60791765	     12.97396932	     -2.64245592	     -0.19096316	     39.82618310	     -6.84918666	      3.67598377	     22.78267480	     22.78267480	      9.03391530	    -12.10346870	     11.14102164	    -12.92280797	      3.47580863	      1.28199066	     21.87606560	    -19.60946443	     -5.36002456	     78.90788863	     44.89653874	      0.00000000	      0.00000000	      1.25077701	     -7.95465180	    -12.94910476	     29.43281584	     47.13473006	      0.00000000	      0.00000000
     26.70714286	     -9.20979394	     -4.32152497	      2.75854111	      0.80063973	      0.92373000	      0.51450288	     15.91033881	      3.36335829	    -13.59683693	     18.27215136	     18.27215136	     13.16790806	     -2.46399129	     -0.21153856	     40.00175569	     -6.76200384	      3.29697766	     21.02135323	     21.02135323	      8.83126510	    -11.11572866	     11.31465976	    -12.86703245	      3.52278240	      1.39791003	     23.29704021	    -19.53469280	     -5.29139877	     79.98196307	     44.87072070	      0.00000000	      0.00000000	      1.16733579	     -7.91094680	    -13.02924619	     29.67027081	     47.13468071	      0.00000000	      0.00000000
     26.71957143	     -9.39054607	     -4.47047450	      2.84252392	      0.79974528	      0.92335856	      0.51406486	     15.63521155	      3.51719843	    -13.67568316	     18.08984332	     18.08984332	     13.38601119	     -2.37669758	     -0.27340978	     40.42900809	     -6.77820530	      3.07604521	     19.93162343	     19.93162343	      8.60845434	    -10.55377358	     11.50750738	    -12.65971804	      3.68034131	      1.78619083	     24.75635236	    -19.61365612	     -5.32949024	     80.68018245	     44.85730528	      0.00000000	      0.00000000	      1.29528931	     -7.82488735	    -13.03517039	     29.85833611	     47.13295404	      0.00000000	      0.00000000
     26.73200000	     -9.29924278	     -4.50189489	      2.94350678	      0.79933672	      0.92359764	      0.51351449	     14.83352063	      3.58867146	    -13.78832694	     17.54716606	     17.54716606	     13.59598108	     -1.99013067	     -0.26419638	     40.28989151	     -6.76285364	      2.71143683	     18.85665847	     18.85665847	      8.28200528	     -9.81824984	     11.67355165	    -12.75450829	      3.72623044	      1.65182014	     26.06667581	    -19.23575769	     -4.79399479	     82.11364070	     44.80799196	      0.00000000	      0.00000000	      0.93772718	     -7.86185610	    -13.18218217	     30.41083280	     47.13062263	      0.00000000	      0.00000000
     26.74442857	     -9.42648632	     -4.59136424	      2.91281418	      0.79884114	      0.92315534	      0.51301928	     14.47807608	      3.70005471	    -13.74768084	     17.39000595	     17.39000595	     13.89495590	     -1.89742505	     -0.34187168	     40.52756971	     -6.83811924	      2.58425081	     18.50586494	     18.50586494	      7.93226847	     -9.62028174	     11.84293838	    -12.51777443	      3.77747996	      2.10937149	     27.23394494	    -19.16448937	     -4.73451482	     82.60873354	     44.79634754	      0.00000000	      0.00000000	      1.09575871	     -7.84671328	    -13.19157855	     30.59029049	     47.13191314	      0.00000000	      0.00000000
     26.75685714	     -9.32307164	     -4.71908840	      2.89443204	      0.79881835	      0.92314902	      0.51246549	     13.57936154	      3.91009843	    -13.78223768	     16.71430845	     16.71430845	     14.09678593	     -1.38875974	     -0.29489830	     40.30945835	     -7.00871530	      2.50734027	     18.26239514	     18.26239514	      7.50134008	     -9.26409156	     11.73158861	    -12.57850458	      3.93934420	      1.87385487	     28.61278950	    -18.68852319	     -3.67145421	     83.92992220	     44.73919956	      0.00000000	      0.00000000	      0.55810498	     -7.91880325	    -13.36169265	     31.48491196	     47.12376280	      0.00000000	      0.00000000
     26.76928571	     -9.37907633	     -4.81299376	      2.71687731	      0.79878213	      0.92260057	      0.51201466	     13.14429684	      4.04281889	    -13.65930233	     16.61676425	     16.61676425	     14.44475957	     -1.27161192	     -0.39505809	     40.21820612	     -7.22403984	      2.42624058	     18.41376220	     18.41376220	      7.03685988	     -9.27752167	     11.84529361	    -12.37605981	      3.98087306	      2.36371237	     29.66648263	    -18.53247499	     -3.55620732	     84.29120092	     44.73013505	      0.00000000	      0.00000000	      0.71980733	     -7.89976351	    -13.36600813	     31.68243392	     47.12371738	      0.00000000	      0.00000000
     26.78171429	     -9.24648552	     -5.03694307	      2.58663078	      0.79925247	      0.92218381	      0.51145439	     12.23680042	      4.35948297	    -13.64006360	     16.06007938	     16.06007938	     14.76580142	     -0.80385924	     -0.36778331	     39.83972132	     -7.56861407	      2.45570164	     18.80824265	     18.80824265	      6.44207248	     -9.25606233	     11.22156233	    -12.36274081	      4.21441200	      2.17818366	     30.95796211	    -18.07926566	     -2.25097551	     84.95487769	     44.69204009	      0.00000000	      0.00000000	      0.10169967	     -7.99649847	    -13.50569854	     32.75680499	     47.10406873	      0.00000000	      0.00000000
     26.79414286	     -9.16661944	     -5.21823126	      2.33469403	      0.79992932	      0.92143224	      0.51094136	     11.53043606	      4.60114062	    -13.47570735	     15.82742438	     15.82742438	     15.18384398	     -0.45468761	     -0.39436378	     39.35493229	     -7.92486585	      2.47415325	     19.30866361	     19.30866361	      5.65890318	     -9.47664799	     10.25859722	    -12.21103332	      4.36179153	      2.14438262	     32.23365717	    -17.61396514	     -0.99296521	     84.93382682	     44.69791344	      0.00000000	      0.00000000	     -0.54137290	     -8.11554203	    -13.68253406	     34.04054690	     47.06418596	      0.00000000	      0.00000000
     26.80657143	     -9.19647584	     -5.34209288	      2.01475916	      0.80077898	      0.92048138	      0.51043958	     10.99910088	      4.76729796	    -13.19114899	     15.73531459	     15.73531459	     15.61917376	     -0.23290682	     -0.52497798	     38.80261555	     -8.24513316	      2.38075463	     19.81117008	     19.81117008	      5.21652650	     -9.66375792	     10.35969461	    -11.87333005	      4.42819369	      2.66595496	     32.80393116	    -17.18168599	     -0.82845918	     85.20771921	     44.68762682	      0.00000000	      0.00000000	     -0.46191892	     -8.17485095	    -13.69334229	     34.11594411	     47.06473646	      0.00000000	      0.00000000
     26.81900000	     -9.00490102	     -5.65935129	      1.77922540	      0.80207779	      0.91965997	      0.50975993	      9.98442901	      5.16755950	    -13.10548663	     15.21379883	     15.21379883	     15.97923299	      0.27002899	     -0.48940232	     38.06379801	     -8.70015627	      2.40405202	     20.58219993	     20.58219993	      4.83359165	     -9.87942394	     10.06397249	    -11.79293165	      4.77177216	      2.72193344	     33.52207264	    -16.57559892	     -0.24598980	     85.84096661	     44.66065950	      0.00000000	      0.00000000	     -0.71693118	     -8.26049403	    -13.74109318	     34.45717970	     47.05560545	      0.00000000	      0.00000000
